<svg xmlns="http://www.w3.org/2000/svg" style="--e1:#c7d2fe;--e2:#6366f1;--e3:#1e1b4b" viewBox="0 0 120 120" width="240" height="240"
    fill="none" aria-hidden="true"><defs><linearGradient id="em78a" x1="0.1" y1="0" x2="0.9" y2="1"><stop offset="0" style="stop-color:var(--e1, #e2e8f0)"/><stop offset="1" style="stop-color:var(--e2, #94a3b8)"/></linearGradient><linearGradient id="em78b" x1="0.1" y1="0" x2="0.9" y2="1"><stop offset="0" style="stop-color:var(--e2, #94a3b8)"/><stop offset="1" style="stop-color:var(--e3, #334155)"/></linearGradient><linearGradient id="em78f" x1="0" y1="0" x2="1" y2="1"><stop offset="0.3" stop-color="#fff" stop-opacity="0"/><stop offset="0.46" stop-color="#fff" stop-opacity="0.5"/><stop offset="0.54" stop-color="#fff" stop-opacity="0.12"/><stop offset="0.7" stop-color="#fff" stop-opacity="0"/></linearGradient></defs><ellipse cx="60" cy="108" rx="44" ry="4.5" fill="var(--eo, #0b0d18)" opacity="0.28"/><g transform="rotate(-14 40 60)"><rect x="18" y="38" width="44" height="44" rx="9" fill="url(#em78b)" stroke="var(--eo, #0b0d18)" stroke-width="4"/><circle cx="29" cy="49" r="4" fill="rgba(255, 255, 255, 0.92)"/><circle cx="40" cy="60" r="4" fill="rgba(255, 255, 255, 0.92)"/><circle cx="51" cy="71" r="4" fill="rgba(255, 255, 255, 0.92)"/></g><g transform="rotate(12 78 70)"><rect x="54" y="46" width="48" height="48" rx="10" fill="url(#em78a)" stroke="var(--eo, #0b0d18)" stroke-width="4"/><path d="M54 46H102V94H54Z" fill="url(#em78f)"/><circle cx="66" cy="58" r="4.5" fill="var(--eo, #0b0d18)"/><circle cx="90" cy="58" r="4.5" fill="var(--eo, #0b0d18)"/><circle cx="78" cy="70" r="4.5" fill="var(--eo, #0b0d18)"/><circle cx="66" cy="82" r="4.5" fill="var(--eo, #0b0d18)"/><circle cx="90" cy="82" r="4.5" fill="var(--eo, #0b0d18)"/><path d="M60 52H80" fill="none" stroke="rgba(255, 255, 255, 0.92)" stroke-width="2.6" stroke-linecap="round" stroke-linejoin="round"/></g></svg>
