<svg xmlns="http://www.w3.org/2000/svg" style="--e1:#c7d2fe;--e2:#6366f1;--e3:#1e1b4b" viewBox="0 0 120 120" width="240" height="240"
    fill="none" aria-hidden="true"><defs><linearGradient id="em7ca" x1="0.1" y1="0" x2="0.9" y2="1"><stop offset="0" style="stop-color:var(--e1, #e2e8f0)"/><stop offset="1" style="stop-color:var(--e2, #94a3b8)"/></linearGradient><linearGradient id="em7cb" x1="0.1" y1="0" x2="0.9" y2="1"><stop offset="0" style="stop-color:var(--e2, #94a3b8)"/><stop offset="1" style="stop-color:var(--e3, #334155)"/></linearGradient><linearGradient id="em7cf" x1="0" y1="0" x2="1" y2="1"><stop offset="0.3" stop-color="#fff" stop-opacity="0"/><stop offset="0.46" stop-color="#fff" stop-opacity="0.5"/><stop offset="0.54" stop-color="#fff" stop-opacity="0.12"/><stop offset="0.7" stop-color="#fff" stop-opacity="0"/></linearGradient></defs><ellipse cx="60" cy="108" rx="32" ry="4.5" fill="var(--eo, #0b0d18)" opacity="0.28"/><path d="M60 106C36 106 22 90 24 70C26 52 40 44 38 24C52 32 56 44 54 54C62 44 64 30 74 14C78 34 96 46 96 72C96 92 82 106 60 106Z" fill="url(#em7ca)" stroke="var(--eo, #0b0d18)" stroke-width="4" stroke-linejoin="round" stroke-linecap="round"/><path d="M60 106C36 106 22 90 24 70C26 52 40 44 38 24C52 32 56 44 54 54C62 44 64 30 74 14C78 34 96 46 96 72C96 92 82 106 60 106Z" fill="url(#em7cf)"/><path d="M60 62C73 62 82 70 82 81C82 87 78 90 76 92V99H44V92C42 90 38 87 38 81C38 70 47 62 60 62Z" fill="rgba(255, 255, 255, 0.92)" stroke="var(--eo, #0b0d18)" stroke-width="3.5" stroke-linejoin="round" stroke-linecap="round"/><ellipse cx="51" cy="81" rx="5.5" ry="6" fill="var(--eo, #0b0d18)" stroke="var(--eo, #0b0d18)" stroke-width="0"/><ellipse cx="69" cy="81" rx="5.5" ry="6" fill="var(--eo, #0b0d18)" stroke="var(--eo, #0b0d18)" stroke-width="0"/><path d="M57.5 91L60 86L62.5 91Z" fill="var(--eo, #0b0d18)"/><path d="M51 94V99M56 94V99M60 94V99M64 94V99M69 94V99" fill="none" stroke="var(--eo, #0b0d18)" stroke-width="2" stroke-linecap="round" stroke-linejoin="round"/></svg>
