<svg xmlns="http://www.w3.org/2000/svg" style="--e1:#c7d2fe;--e2:#6366f1;--e3:#1e1b4b" viewBox="0 0 120 120" width="240" height="240"
    fill="none" aria-hidden="true"><defs><linearGradient id="em6fa" x1="0.1" y1="0" x2="0.9" y2="1"><stop offset="0" style="stop-color:var(--e1, #e2e8f0)"/><stop offset="1" style="stop-color:var(--e2, #94a3b8)"/></linearGradient><linearGradient id="em6fb" x1="0.1" y1="0" x2="0.9" y2="1"><stop offset="0" style="stop-color:var(--e2, #94a3b8)"/><stop offset="1" style="stop-color:var(--e3, #334155)"/></linearGradient><linearGradient id="em6ff" x1="0" y1="0" x2="1" y2="1"><stop offset="0.3" stop-color="#fff" stop-opacity="0"/><stop offset="0.46" stop-color="#fff" stop-opacity="0.5"/><stop offset="0.54" stop-color="#fff" stop-opacity="0.12"/><stop offset="0.7" stop-color="#fff" stop-opacity="0"/></linearGradient></defs><ellipse cx="60" cy="108" rx="40" ry="4.5" fill="var(--eo, #0b0d18)" opacity="0.28"/><path d="M32 42H88Q106 42 108 62L106 84Q103 98 90 94L78 80H42L30 94Q17 98 14 84L12 62Q14 42 32 42Z" fill="url(#em6fa)" stroke="var(--eo, #0b0d18)" stroke-width="4" stroke-linejoin="round" stroke-linecap="round"/><path d="M32 42H88Q106 42 108 62L106 84Q103 98 90 94L78 80H42L30 94Q17 98 14 84L12 62Q14 42 32 42Z" fill="url(#em6ff)"/><path d="M33 56h8v8h8v8h-8v8h-8v-8h-8v-8h8z" fill="url(#em6fb)" stroke="var(--eo, #0b0d18)" stroke-width="3" stroke-linejoin="round" stroke-linecap="round"/><circle cx="82" cy="61" r="6" fill="url(#em6fb)" stroke="var(--eo, #0b0d18)" stroke-width="3"/><circle cx="94" cy="72" r="6" fill="url(#em6fb)" stroke="var(--eo, #0b0d18)" stroke-width="3"/><circle cx="60" cy="62" r="2.6" fill="var(--eo, #0b0d18)" stroke="var(--eo, #0b0d18)" stroke-width="0"/><path d="M28 50Q36 47 46 47" fill="none" stroke="rgba(255, 255, 255, 0.92)" stroke-width="3.2" stroke-linecap="round" stroke-linejoin="round"/></svg>
