<svg xmlns="http://www.w3.org/2000/svg" viewBox="0 0 64 64" width="256" height="256"><defs><clipPath id="facet-gem"><polygon points="18,12 46,12 60,26 32,58 4,26"/></clipPath></defs><polygon points="18,12 46,12 60,26 32,58 4,26" fill="#6d5df6"/><polygon points="18,12 4,26 25,26" fill="#fff" fill-opacity="0.22"/><polygon points="18,12 32,12 25,26" fill="#fff" fill-opacity="0.4"/><polygon points="25,26 32,12 39,26" fill="#fff" fill-opacity="0.1"/><polygon points="32,12 46,12 39,26" fill="#fff" fill-opacity="0.3"/><polygon points="4,26 25,26 32,58" fill="#000" fill-opacity="0.18"/><polygon points="25,26 39,26 32,58" fill="#fff" fill-opacity="0.06"/><polygon points="39,26 60,26 32,58" fill="#000" fill-opacity="0.36"/><g clip-path="url(#facet-gem)"><polyline points="18,12 25,26 32,12 39,26 46,12" fill="none" stroke="#f2c35b" stroke-width="4.5" stroke-linejoin="miter" stroke-miterlimit="12"/></g></svg>
