<svg xmlns="http://www.w3.org/2000/svg" viewBox="0 0 64 64" width="256" height="256" color="#14151f"><defs><clipPath id="folio-wb"><rect x="17" y="31" width="30" height="21"/></clipPath><mask id="folio-m" maskUnits="userSpaceOnUse" x="0" y="0" width="64" height="64"><path d="M15 6H49A5 5 0 0 1 54 11V55A5 5 0 0 1 49 60H15A5 5 0 0 1 10 55V11A5 5 0 0 1 15 6Z" fill="#fff"/><path d="M38 1H48V27L43 22L38 27Z" fill="#000" stroke="#000" stroke-width="5" stroke-linejoin="round"/><path d="M38 1H48V27L43 22L38 27Z" fill="#fff"/><path d="M17 14H31M17 21H27" stroke="#000" stroke-width="3" stroke-linecap="round"/><g clip-path="url(#folio-wb)"><polyline points="17,31 24.5,52 32,33.1 39.5,52 47,31" fill="none" stroke="#000" stroke-width="6" stroke-linejoin="miter" stroke-miterlimit="12"/></g></mask></defs><rect width="64" height="64" fill="currentColor" mask="url(#folio-m)"/></svg>
